<?xml version="1.0" encoding="utf-8"?>
<!-- Generator: Adobe Illustrator 16.0.0, SVG Export Plug-In . SVG Version: 6.00 Build 0)  -->
<!DOCTYPE svg PUBLIC "-//W3C//DTD SVG 1.1//EN" "http://www.w3.org/Graphics/SVG/1.1/DTD/svg11.dtd">
<svg version="1.1" id="Layer_1" xmlns="http://www.w3.org/2000/svg" xmlns:xlink="http://www.w3.org/1999/xlink" x="0px" y="0px"
	 width="471.197px" height="120.69px" viewBox="0 0 471.197 120.69" enable-background="new 0 0 471.197 120.69"
	 xml:space="preserve">
<rect x="1.738" y="0.739" fill="#FFFFFF" width="468.459" height="117.951"/>
<path fill="#555959" d="M471.197,120.69H0V0h471.197V120.69z M2.738,117.953h465.72V2.74H2.738V117.953z"/>
<polygon fill="#AF1F23" points="98.559,49.635 83.233,70.069 81.482,70.069 66.493,49.569 66.493,83.786 57.62,83.786 57.62,36.723 
	67.837,36.723 82.562,56.96 97.281,36.723 107.434,36.723 107.434,83.786 98.559,83.786 "/>
<polygon fill="#AF1F23" points="135.4,36.66 135.4,75.515 159.602,75.515 159.602,83.719 126.526,83.719 126.526,36.66 "/>
<g>
	<defs>
		<rect id="SVGID_1_" x="-47.865" y="-223.119" width="566.929" height="566.929"/>
	</defs>
	<clipPath id="SVGID_2_">
		<use xlink:href="#SVGID_1_"  overflow="visible"/>
	</clipPath>
	<path clip-path="url(#SVGID_2_)" fill="#AF1F23" d="M218.02,59.787c0.203,11.896-7.06,23.928-23.529,23.928h-18.485V36.66h18.485
		C210.628,36.66,217.822,48.153,218.02,59.787 M184.818,75.181h9.673c10.693,0,14.93-7.802,14.728-15.462
		c-0.203-7.33-4.508-14.655-14.728-14.655h-9.673V75.181z"/>
	<path clip-path="url(#SVGID_2_)" fill="#555959" d="M263.674,48.018c-1.612-2.685-6.051-5.238-11.164-5.238
		c-6.585,0-9.742,2.754-9.742,6.248c0,4.104,4.839,5.246,10.489,5.917c9.813,1.211,18.953,3.766,18.953,14.993
		c0,10.483-9.279,14.989-19.761,14.989c-9.615,0-17.011-2.956-20.507-11.563l7.391-3.833c2.089,5.178,7.53,7.461,13.246,7.461
		c5.58,0,10.823-1.943,10.823-7.055c0-4.439-4.637-6.254-10.893-6.925c-9.609-1.145-18.487-3.701-18.487-14.254
		c0-9.679,9.549-13.649,18.223-13.711c7.327,0,14.925,2.082,18.486,9.341L263.674,48.018z"/>
	<path clip-path="url(#SVGID_2_)" fill="#555959" d="M312.011,69.87H298.7v13.847h-8.875V36.657c7.395,0,14.788-0.068,22.186-0.068
		C335,36.589,335.065,69.87,312.011,69.87 M298.7,61.735h13.311c11.36,0,11.29-16.674,0-16.674H298.7V61.735z"/>
	<path clip-path="url(#SVGID_2_)" fill="#555959" d="M392.278,60.457c-0.136,12.167-7.598,24.336-24.136,24.336
		c-16.536,0-24.201-11.895-24.201-24.266c0-12.374,7.939-24.809,24.201-24.809C384.345,35.718,392.412,48.153,392.278,60.457
		 M352.68,60.658c0.204,7.731,4.368,16.005,15.463,16.005c11.091,0,15.26-8.342,15.396-16.068c0.137-7.938-4.305-16.81-15.396-16.81
		C357.048,43.785,352.479,52.728,352.68,60.658"/>
	<polygon clip-path="url(#SVGID_2_)" fill="#555959" points="418.971,44.724 404.044,44.724 404.044,36.66 442.769,36.66 
		442.769,44.724 427.843,44.724 427.843,83.715 418.971,83.715 	"/>
	<rect x="20.319" y="36.738" clip-path="url(#SVGID_2_)" fill="#555959" width="17.902" height="17.904"/>
</g>
</svg>
